<?xml version="1.0" standalone="no"?>
<!DOCTYPE svg PUBLIC "-//W3C//DTD SVG 1.1//EN" "http://www.w3.org/Graphics/SVG/1.1/DTD/svg11.dtd">
<svg xmlns:xlink="http://www.w3.org/1999/xlink" version="1.1" x="0px" y="0px" viewBox="0 0 50 50" class="icon8 icons8-Viber-Filled" xmlns="http://www.w3.org/2000/svg">
<defs xmlns="http://www.w3.org/1999/xhtml">
<style type="text/css">
<![CDATA[
]]>
</style>
</defs>
<path d="M44.78,13.155c-0.78-2.786-2.325-4.99-4.591-6.55c-2.86-1.971-6.149-2.669-8.989-3.093 c-3.931-0.586-7.491-0.669-10.882-0.254c-3.181,0.39-5.574,1.011-7.76,2.016c-4.281,1.967-6.851,5.15-7.637,9.461 c-0.381,2.092-0.638,3.985-0.787,5.788c-0.343,4.172-0.032,7.863,0.952,11.285c0.959,3.336,2.635,5.719,5.123,7.284 c0.635,0.399,1.446,0.688,2.231,0.966c0.446,0.158,0.879,0.311,1.235,0.476c0.328,0.152,0.328,0.181,0.325,0.455 c-0.028,2.372,0,7.019,0,7.019L14.006,49h1.783l0.291-0.28c0.188-0.181,4.605-4.447,6.177-6.164l0.214-0.241 c0.271-0.31,0.271-0.31,0.55-0.315c2.124-0.042,4.295-0.124,6.452-0.241c2.614-0.143,5.642-0.395,8.493-1.585 c2.61-1.09,4.514-2.819,5.659-5.14c1.194-2.421,1.903-5.043,2.169-8.016C46.26,21.793,45.929,17.258,44.78,13.155z M35.382,33.479 c-0.654,1.069-1.633,1.809-2.786,2.291c-0.842,0.352-1.702,0.278-2.532-0.074c-6.968-2.948-12.43-7.595-16.042-14.274 c-0.744-1.375-1.262-2.874-1.855-4.328c-0.122-0.299-0.114-0.65-0.167-0.976c0.051-2.35,1.853-3.671,3.673-4.072 c0.696-0.154,1.311,0.092,1.828,0.585c1.428,1.363,2.557,2.943,3.408,4.716c0.373,0.777,0.205,1.466-0.43,2.044 c-0.131,0.12-0.269,0.232-0.411,0.339c-1.446,1.088-1.659,1.91-0.888,3.547c1.313,2.786,3.49,4.656,6.308,5.816 c0.743,0.306,1.442,0.155,2.009-0.447c0.076-0.081,0.162-0.158,0.218-0.251c1.111-1.853,2.722-1.669,4.209-0.612 c0.977,0.695,1.927,1.426,2.893,2.135C36.29,30.999,36.277,32.015,35.382,33.479z M26.143,15c-0.327,0-0.656,0.027-0.979,0.081 c-0.546,0.092-1.06-0.277-1.151-0.822c-0.091-0.545,0.277-1.06,0.822-1.151C25.266,13.037,25.706,13,26.143,13 C30.476,13,34,16.525,34,20.857c0,0.44-0.037,0.88-0.108,1.309C33.809,22.654,33.386,23,32.906,23c-0.055,0-0.111-0.004-0.167-0.014 c-0.544-0.092-0.912-0.607-0.82-1.152C31.973,21.515,32,21.187,32,20.857C32,17.627,29.373,15,26.143,15z M31,21 c0,0.552-0.448,1-1,1s-1-0.448-1-1c0-1.654-1.346-3-3-3c-0.552,0-1-0.448-1-1s0.448-1,1-1C28.757,16,31,18.243,31,21z M36.709,23.221C36.604,23.686,36.192,24,35.735,24c-0.073,0-0.148-0.008-0.222-0.025c-0.539-0.122-0.876-0.658-0.754-1.196 c0.145-0.639,0.218-1.298,0.218-1.961c0-4.862-3.956-8.818-8.818-8.818c-0.663,0-1.322,0.073-1.961,0.218 c-0.536,0.124-1.074-0.215-1.196-0.754s0.215-1.074,0.754-1.196C24.54,10.09,25.349,10,26.16,10c5.965,0,10.818,4.853,10.818,10.818 C36.978,21.629,36.887,22.438,36.709,23.221z"/></svg>